<?xml version="1.0" encoding="UTF-8"?>
<svg width="100" height="100" viewBox="0 0 100 100" fill="none" xmlns="http://www.w3.org/2000/svg">
  <path d="M49.5,25.8l-8.6,8.1l-17.3-3l17.3,3l-8.6,8.1l-17.3-3l17.3,3l-8.6,8.1l-17.3-3l17.3,3l-8.6,8.1l-17.3-3 l17.3,3l0,0l8.6-8.1l17.3,3l-17.3-3l8.6-8.1l17.3,3l-17.3-3l8.6-8.1l17.3,3l-17.3-3l8.6-8.1L49.5,25.8z" fill="currentColor"/>
  <path d="M66.8,22.8l-8.6,8.1l-17.3-3l17.3,3l-8.6,8.1l-17.3-3l17.3,3l-8.6,8.1l-17.3-3l17.3,3l-8.6,8.1l-17.3-3l17.3,3l0,0l8.6-8.1l17.3,3l-17.3-3l8.6-8.1l17.3,3l-17.3-3l8.6-8.1l17.3,3l-17.3-3l8.6-8.1L66.8,22.8z" fill="currentColor"/>
  <path d="M84.1,19.8l-8.6,8.1l-17.3-3l17.3,3l-8.6,8.1l-17.3-3l17.3,3l-8.6,8.1l-17.3-3l17.3,3l-8.6,8.1l-17.3-3l17.3,3l0,0l8.6-8.1l17.3,3l-17.3-3l8.6-8.1l17.3,3l-17.3-3l8.6-8.1l17.3,3l-17.3-3l8.6-8.1L84.1,19.8z" fill="currentColor"/>
</svg> 